<svg xmlns="http://www.w3.org/2000/svg" width="996" height="674"><circle cx="138.9" cy="525.4" r="138.9" fill="#f2f2f2"/><path d="M307 587a293.5 293.5 0 110-587 293.5 293.5 0 010 587zm0-584.8C146.4 2.2 15.7 133 15.7 293.5S146.4 584.8 307 584.8s291.3-130.6 291.3-291.3S467.6 2.2 307 2.2z" fill="#2f2e41"/><path fill="#5a51fa" d="M460 386.4h-.1L315.2 467l-158.4-79.2-2.8-1.4 8.3-164.4 143-102 1.6 1 148 92.8 5 172.6z"/><path opacity=".3" d="M459.9 386.5L315.2 467l-158.4-79.2L297 289.4l162.8 97z"/><path opacity=".1" d="M460 386.4l-162.9-97L307 121l148 92.8 5 172.6z"/><g fill="#f2f2f2"><path d="M160.2 272.7l-.8-1L304 169.4l152.8 95.8-.7 1.2-152-95.3-144 101.5zm-2.8 56l-.8-1.2 143.9-97.8.4.3 156 88.4-.6 1.2-155.7-88.2-143.2 97.2z"/><path d="M212.3 416l-.8-1.2 145.1-89.9V152.6h1.4v173L212.3 416zm57 28.4l-.8-1.2L408 355.6V185h1.4v171.5l-140.3 88z"/><path d="M407.6 416l-162.4-90.3v-.4l8.5-169h1.4L246.6 325l161.7 89.9-.7 1.2zm-51 28.5l-160.7-84.2v-.5l9.5-169h1.4l-9.5 168.7 159.9 83.7-.7 1.3z"/></g><circle cx="487.4" cy="63.9" r="56" fill="#3f3d56"/><path fill="#2f2e41" d="M32.5 662.1H996v2.3H32.5z"/><path d="M884.1 360.8l12.8 35s-13.3 40.2 0 41.3 15-38.4 15-38.4l-7.2-42.3z" fill="#ffb9b9"/><path d="M890.3 246.1l9.4 9.5v45s5.6 8.4 4.5 10.7-2.2 2.2-1.1 3.9 2.2 2.7 1 3.9a4.2 4.2 0 000 5c1.2 1 3.4 2.8 1.7 4.4s-3.8.6-1.6 6.7 6.1 7.8 5 10-1.1 7.8-1.1 7.8l-24 3.4-5-63z" fill="#d0cde1"/><path fill="#3f3d56" d="M909.2 352.5l-27.8 1 1 11.8 24.6-4.5 2.2-8.3z"/><path fill="#ffb9b9" d="M832.6 188l-3.3 33.4 34 5 2.5-19.2 2.5-19.2h-35.7z"/><path opacity=".1" d="M832.6 188l-3.3 33.4 34 5 2.5-19.2 2.5-19.2h-35.7z"/><path d="M758.9 346.9l18.9 40.6s3.3 19 8.4 19.5 10-19.5 10-19.5l-6.7-10.5-7.8-30.1z" fill="#ffb9b9"/><path d="M798.4 383.6l-15.6 24.5L770 639.7c2.2-1.6 9.5-2.2 12.3-6.7s20 0 20 0l10-10.5V614c0-1.7 20-129.1 20-129.1v32.3s-6 118.5 4 117.4 30.6-7.8 30.6-7.8 29.5-221.5 20.6-229.9-12.8-27.3-12.8-27.3z" fill="#2f2e41"/><circle cx="851.3" cy="172.1" r="26.7" fill="#ffb9b9"/><path d="M791.7 226.6l-3.9-2.2s-17.2 11.7-22.8 37.9-9.5 32.8-9.5 32.8-5.5 1.1-1.6 5 3.9 3.4.5 5.6-5.5-2.2-3.3 2.2 5 3.4 2.8 6.1-6.2 2.8-4 5-2.2 7.3.6 9.5 4 2.8 4 6.7c0 2.3.3 4.5 1 6.7h29s-5.6-10.6-4-12.8 2.3-4.5 1.2-5.6-4.5 1.1-1.1-1.7 4.4-1 3.3-4.4-3.3-1.7-1-3.4 3.8-1 2.7-2.7-3.3-1.7-1.1-2.8 3.9 0 3.3-2.8-1-1.7 0-2.8 12.8-39 12.8-40-8.9-36.3-8.9-36.3z" fill="#d0cde1"/><path d="M786.2 339.7l-35.1 2.2 8.9 8.3 24.5.6 1.7-11.1zm10 41.7l-7.3 13.4s21.8 2.8 29.5 5.5 27.9 6.7 27.9 6.7l5-19.5zm63.4 6.1l6.2 18.4 24.5-5-2.8-17.3-27.9 4z" fill="#3f3d56"/><path d="M869.7 207.7s-1.7-1.1-5.6 1.1-16.7 3.4-22.8-3.3-10.6-12.3-12.3-11.1-2.8 13.9-2.8 13.9l-5.5 4.4-32.9 11.7 2.8 75.2 5 17.2s-3.9 13.4 1.1 21.2-2.8 10.6-2.8 10.6-1.6 2.2-.5 7.8-1.1 26.1-1.1 26.1 47.3 21.2 96.8 2.8l-5.5-21.1-2.8-47.4s2.8-7.8 2.2-11.1 16.7-50.1 16.7-50.1-2.8-23.4-17.2-28.4-16.7-10-16.7-10 6.6-7.3 3.9-9.5z" fill="#d0cde1"/><path d="M824.4 175.5s-2.8-4.2-1.7-8.6a26.2 26.2 0 00.7-7.8c1.2-4 2.7-7.7 4.5-11.3 2.2-4.1 1.2-5.8 8.2-7s4.2-10.5 22.8-.6a5.4 5.4 0 005.6 2.1c3.9-.7 5.2 4.6 5.2 4.6s2.6-1.5 3.6.6 7.8-1.2 7.8 13.2-7.8 27.3-7.8 27.3.6-24.3-12.1-26.7-26.4-9.6-29.7-.5a70 70 0 01-7.1 14.7z" fill="#2f2e41"/><ellipse cx="873.6" cy="177.9" rx="2.5" ry="3.3" fill="#ffb9b9"/><path d="M859.4 625l3.9 11.7s0 11.7 3.9 17.6 7.8 18.6-7.8 19.6-22.5-4.9-22.5-4.9 2.9-7.8 0-10.8 0-8.8 0-8.8l2.9-23.5zm-76.3 0l-4 11.7s0 11.7-3.8 17.6-7.9 18.6 7.8 19.6 22.5-4.9 22.5-4.9-3-7.8 0-10.8 0-8.8 0-8.8l-3-23.5z" fill="#2f2e41"/></svg>